<svg width="86" height="86" viewBox="0 0 86 86" fill="none" xmlns="http://www.w3.org/2000/svg">
<path d="M42.9997 51.7461L37.2568 58.7063V86.0003H48.7426V58.7063L42.9997 51.7461Z" fill="#FAE58B"/>
<path d="M74.8375 72.1167L66.0078 79.6235L48.7432 58.7065V49.6328L57.537 51.1998L74.8375 72.1167Z" fill="#FAE58B"/>
<path d="M59.5469 39.7207L51.7939 44.2393L57.5368 51.1995L83.9901 55.9368L86.0001 44.458L59.5469 39.7207Z" fill="#FAE58B"/>
<path d="M77.0624 15.998L53.7677 29.6269L50.7168 38.154L59.5106 39.7209L82.7694 26.0921L77.0624 15.998Z" fill="#FAE58B"/>
<path d="M62.9925 3.97203L53.8038 29.6263L46.0509 34.1814L43 25.6542L52.1886 0L62.9925 3.97203Z" fill="#FAE58B"/>
<path d="M42.9998 25.6542L39.9489 34.1814L32.196 29.6263L23.0073 3.97203L33.8112 0L42.9998 25.6542Z" fill="#FAE58B"/>
<path d="M32.196 29.6269L8.93724 15.998L3.19434 26.0921L26.4531 39.7209L35.2469 38.154L32.196 29.6269Z" fill="#FAE58B"/>
<path d="M26.4533 39.7207L0 44.458L2.01002 55.9368L28.4992 51.1995L34.2421 44.2393L26.4533 39.7207Z" fill="#FAE58B"/>
<path d="M28.4633 51.1998L11.1987 72.1167L19.9926 79.6235L37.2572 58.7065V49.6328L28.4633 51.1998Z" fill="#FAE58B"/>
</svg>
